<mxfile host="app.diagrams.net" modified="2021-09-17T10:52:50.961Z" agent="5.0 (Windows NT 10.0; Win64; x64) AppleWebKit/537.36 (KHTML, like Gecko) Chrome/93.0.4577.63 Safari/537.36 Edg/93.0.961.47" etag="gWdNne6xyrc3gVIP9U2i" version="15.2.9" type="github">
  <diagram id="-T_DztN_j2xOQGBf0kMG" name="Страница 1">
    <mxGraphModel dx="2595" dy="1390" grid="1" gridSize="10" guides="1" tooltips="1" connect="1" arrows="1" fold="1" page="1" pageScale="1" pageWidth="827" pageHeight="1169" background="#ffffff" math="0" shadow="0">
      <root>
        <mxCell id="0" />
        <mxCell id="1" parent="0" />
        <mxCell id="LunK326cNXRjHZ1-TdNW-76" value="&lt;span style=&quot;background-color: rgb(255 , 255 , 255)&quot;&gt;&lt;font style=&quot;font-size: 14px&quot;&gt;&lt;b&gt;Создание шаблона. &lt;br&gt;Реестры шаблонов&lt;/b&gt;&lt;/font&gt;&lt;/span&gt;" style="text;html=1;align=center;verticalAlign=middle;resizable=0;points=[];autosize=1;strokeColor=none;fillColor=none;" parent="1" vertex="1">
          <mxGeometry x="70" y="222" width="150" height="40" as="geometry" />
        </mxCell>
        <mxCell id="LunK326cNXRjHZ1-TdNW-77" value="&lt;span style=&quot;background-color: rgb(255 , 255 , 255)&quot;&gt;&lt;font style=&quot;font-size: 14px&quot;&gt;&lt;b&gt;Редактирование шаблона. &lt;br&gt;Реестры шаблонов&lt;/b&gt;&lt;/font&gt;&lt;/span&gt;" style="text;html=1;align=center;verticalAlign=middle;resizable=0;points=[];autosize=1;strokeColor=none;fillColor=none;" parent="1" vertex="1">
          <mxGeometry x="50" y="320" width="200" height="40" as="geometry" />
        </mxCell>
        <mxCell id="LunK326cNXRjHZ1-TdNW-78" value="&lt;span style=&quot;background-color: rgb(255 , 255 , 255)&quot;&gt;&lt;font style=&quot;font-size: 14px&quot;&gt;&lt;b&gt;Копирование шаблона. &lt;br&gt;Реестры шаблонов&lt;/b&gt;&lt;/font&gt;&lt;/span&gt;" style="text;html=1;align=center;verticalAlign=middle;resizable=0;points=[];autosize=1;strokeColor=none;fillColor=none;" parent="1" vertex="1">
          <mxGeometry x="60" y="410" width="180" height="40" as="geometry" />
        </mxCell>
        <mxCell id="LunK326cNXRjHZ1-TdNW-79" value="&lt;font style=&quot;font-size: 16px&quot;&gt;Статус &lt;b&gt;&quot;Черновик&quot;&lt;/b&gt;&lt;/font&gt;" style="rounded=1;whiteSpace=wrap;html=1;strokeWidth=2;fillWeight=4;hachureGap=8;hachureAngle=45;sketch=1;fillColor=#FFCCCC;" parent="1" vertex="1">
          <mxGeometry x="280" y="120" width="120" height="60" as="geometry" />
        </mxCell>
        <mxCell id="LunK326cNXRjHZ1-TdNW-80" value="&lt;span style=&quot;font-size: 16px&quot;&gt;Статус &lt;br&gt;&quot;&lt;/span&gt;&lt;b&gt;&lt;font style=&quot;font-size: 16px&quot;&gt;Готов к работе&quot;&lt;/font&gt;&lt;/b&gt;" style="rounded=1;whiteSpace=wrap;html=1;strokeWidth=2;fillWeight=4;hachureGap=8;hachureAngle=45;sketch=1;fillColor=#FFF2CC;" parent="1" vertex="1">
          <mxGeometry x="500" y="120" width="120" height="60" as="geometry" />
        </mxCell>
        <mxCell id="LunK326cNXRjHZ1-TdNW-81" value="&lt;span style=&quot;font-size: 16px&quot;&gt;Статус &lt;br&gt;&amp;nbsp;&quot;&lt;/span&gt;&lt;b&gt;&lt;font style=&quot;font-size: 16px&quot;&gt;Архив&quot;&lt;/font&gt;&lt;/b&gt;" style="rounded=1;whiteSpace=wrap;html=1;strokeWidth=2;fillWeight=4;hachureGap=8;hachureAngle=45;sketch=1;fillColor=#E6E6E6;" parent="1" vertex="1">
          <mxGeometry x="730" y="120" width="120" height="60" as="geometry" />
        </mxCell>
        <mxCell id="LunK326cNXRjHZ1-TdNW-82" value="&lt;span style=&quot;font-size: 16px&quot;&gt;Статус &lt;br&gt;&quot;&lt;/span&gt;&lt;b&gt;&lt;font style=&quot;font-size: 16px&quot;&gt;В работе&quot;&lt;/font&gt;&lt;/b&gt;" style="rounded=1;whiteSpace=wrap;html=1;strokeWidth=2;fillWeight=4;hachureGap=8;hachureAngle=45;sketch=1;fillColor=#99FF99;" parent="1" vertex="1">
          <mxGeometry x="940" y="120" width="120" height="60" as="geometry" />
        </mxCell>
        <mxCell id="LunK326cNXRjHZ1-TdNW-84" value="" style="line;strokeWidth=1;rotatable=0;dashed=0;labelPosition=right;align=left;verticalAlign=middle;spacingTop=0;spacingLeft=6;points=[];portConstraint=eastwest;fillColor=#E6E6E6;" parent="1" vertex="1">
          <mxGeometry x="245" y="240" width="750" height="10" as="geometry" />
        </mxCell>
        <mxCell id="LunK326cNXRjHZ1-TdNW-85" value="" style="line;strokeWidth=1;rotatable=0;dashed=0;labelPosition=right;align=left;verticalAlign=middle;spacingTop=0;spacingLeft=6;points=[];portConstraint=eastwest;fillColor=#E6E6E6;" parent="1" vertex="1">
          <mxGeometry x="250" y="330" width="740" height="10" as="geometry" />
        </mxCell>
        <mxCell id="LunK326cNXRjHZ1-TdNW-86" value="" style="line;strokeWidth=1;rotatable=0;dashed=0;labelPosition=right;align=left;verticalAlign=middle;spacingTop=0;spacingLeft=6;points=[];portConstraint=eastwest;fillColor=#E6E6E6;" parent="1" vertex="1">
          <mxGeometry x="250" y="425" width="750" height="10" as="geometry" />
        </mxCell>
        <mxCell id="LunK326cNXRjHZ1-TdNW-90" value="" style="line;strokeWidth=2;direction=south;html=1;fillColor=#E6E6E6;align=left;strokeColor=#FF9999;" parent="1" vertex="1">
          <mxGeometry x="335" y="182.5" width="10" height="337.5" as="geometry" />
        </mxCell>
        <mxCell id="LunK326cNXRjHZ1-TdNW-91" value="" style="line;strokeWidth=2;direction=south;html=1;fillColor=#E6E6E6;align=left;strokeColor=#FFFF00;" parent="1" vertex="1">
          <mxGeometry x="560" y="185" width="10" height="335" as="geometry" />
        </mxCell>
        <mxCell id="LunK326cNXRjHZ1-TdNW-92" value="" style="line;strokeWidth=2;direction=south;html=1;fillColor=#E6E6E6;align=left;strokeColor=#B3B3B3;" parent="1" vertex="1">
          <mxGeometry x="790" y="180" width="10" height="350" as="geometry" />
        </mxCell>
        <mxCell id="LunK326cNXRjHZ1-TdNW-93" value="" style="line;strokeWidth=2;direction=south;html=1;fillColor=#E6E6E6;align=left;strokeColor=#00CC00;" parent="1" vertex="1">
          <mxGeometry x="995" y="180" width="10" height="340" as="geometry" />
        </mxCell>
        <mxCell id="LunK326cNXRjHZ1-TdNW-94" value="&lt;span style=&quot;font-size: 13px; text-align: left; background-color: rgb(255, 255, 255);&quot;&gt;1. Валидация обязательных&lt;/span&gt; &lt;br style=&quot;font-size: 13px; text-align: left; background-color: rgb(255, 255, 255);&quot;&gt; &lt;span style=&quot;font-size: 13px; text-align: left; background-color: rgb(255, 255, 255);&quot;&gt; полей не пройдена&lt;/span&gt;" style="text;html=1;align=center;verticalAlign=middle;resizable=0;points=[];autosize=1;strokeColor=none;fillColor=#FFFFFF;fontSize=13;" parent="1" vertex="1">
          <mxGeometry x="245" y="187" width="190" height="40" as="geometry" />
        </mxCell>
        <mxCell id="LunK326cNXRjHZ1-TdNW-95" value="&lt;span style=&quot;font-size: 13px; text-align: left; background-color: rgb(255, 255, 255);&quot;&gt;2. Валидация обязательных&lt;/span&gt;&lt;br style=&quot;font-size: 13px; text-align: left; background-color: rgb(255, 255, 255);&quot;&gt;&lt;span style=&quot;font-size: 13px; text-align: left; background-color: rgb(255, 255, 255);&quot;&gt;&amp;nbsp;полей пройдена&lt;/span&gt;" style="text;html=1;align=center;verticalAlign=middle;resizable=0;points=[];autosize=1;strokeColor=none;fillColor=#FFFFFF;fontSize=13;" parent="1" vertex="1">
          <mxGeometry x="470" y="187" width="190" height="40" as="geometry" />
        </mxCell>
        <mxCell id="LunK326cNXRjHZ1-TdNW-96" value="&lt;div style=&quot;text-align: left&quot;&gt;&lt;font size=&quot;1&quot;&gt;&lt;span style=&quot;background-color: rgb(255 , 255 , 255)&quot;&gt;Да&lt;/span&gt;&lt;/font&gt;&lt;/div&gt;" style="text;html=1;align=center;verticalAlign=middle;resizable=0;points=[];autosize=1;strokeColor=none;fillColor=#FFFFFF;" parent="1" vertex="1">
          <mxGeometry x="325" y="325" width="30" height="20" as="geometry" />
        </mxCell>
        <mxCell id="LunK326cNXRjHZ1-TdNW-97" value="&lt;div style=&quot;text-align: left&quot;&gt;&lt;font size=&quot;1&quot;&gt;&lt;span style=&quot;background-color: rgb(255 , 255 , 255)&quot;&gt;Да&lt;/span&gt;&lt;/font&gt;&lt;/div&gt;" style="text;html=1;align=center;verticalAlign=middle;resizable=0;points=[];autosize=1;strokeColor=none;fillColor=#FFFFFF;" parent="1" vertex="1">
          <mxGeometry x="325" y="421" width="30" height="20" as="geometry" />
        </mxCell>
        <mxCell id="LunK326cNXRjHZ1-TdNW-98" value="&lt;div style=&quot;text-align: left&quot;&gt;&lt;font size=&quot;1&quot;&gt;&lt;span style=&quot;background-color: rgb(255 , 255 , 255)&quot;&gt;Да&lt;/span&gt;&lt;/font&gt;&lt;/div&gt;" style="text;html=1;align=center;verticalAlign=middle;resizable=0;points=[];autosize=1;strokeColor=none;fillColor=#FFFFFF;" parent="1" vertex="1">
          <mxGeometry x="550" y="325" width="30" height="20" as="geometry" />
        </mxCell>
        <mxCell id="LunK326cNXRjHZ1-TdNW-99" value="&lt;span style=&quot;font-size: 13px; text-align: left; background-color: rgb(255, 255, 255);&quot;&gt;3. Постановка на удаление&lt;/span&gt;" style="text;html=1;align=center;verticalAlign=middle;resizable=0;points=[];autosize=1;strokeColor=none;fillColor=#FFFFFF;fontSize=13;" parent="1" vertex="1">
          <mxGeometry x="705" y="193" width="180" height="20" as="geometry" />
        </mxCell>
        <mxCell id="LunK326cNXRjHZ1-TdNW-100" value="&lt;div style=&quot;text-align: left&quot;&gt;&lt;font size=&quot;1&quot;&gt;&lt;span style=&quot;background-color: rgb(255 , 255 , 255)&quot;&gt;Да&lt;/span&gt;&lt;/font&gt;&lt;/div&gt;" style="text;html=1;align=center;verticalAlign=middle;resizable=0;points=[];autosize=1;strokeColor=none;fillColor=#FFFFFF;" parent="1" vertex="1">
          <mxGeometry x="550" y="420" width="30" height="20" as="geometry" />
        </mxCell>
        <mxCell id="LunK326cNXRjHZ1-TdNW-101" value="&lt;span style=&quot;background-color: rgb(255 , 255 , 255)&quot;&gt;&lt;font style=&quot;font-size: 14px&quot;&gt;&lt;b&gt;Удаление шаблона. &lt;br&gt;Реестры шаблонов&lt;/b&gt;&lt;/font&gt;&lt;/span&gt;" style="text;html=1;align=center;verticalAlign=middle;resizable=0;points=[];autosize=1;strokeColor=none;fillColor=none;" parent="1" vertex="1">
          <mxGeometry x="75" y="500" width="150" height="40" as="geometry" />
        </mxCell>
        <mxCell id="LunK326cNXRjHZ1-TdNW-102" value="" style="line;strokeWidth=1;rotatable=0;dashed=0;labelPosition=right;align=left;verticalAlign=middle;spacingTop=0;spacingLeft=6;points=[];portConstraint=eastwest;fillColor=#E6E6E6;" parent="1" vertex="1">
          <mxGeometry x="249" y="520" width="751" height="10" as="geometry" />
        </mxCell>
        <mxCell id="LunK326cNXRjHZ1-TdNW-103" value="&lt;div style=&quot;text-align: left&quot;&gt;&lt;font size=&quot;1&quot;&gt;&lt;span style=&quot;background-color: rgb(255 , 255 , 255)&quot;&gt;Да&lt;/span&gt;&lt;/font&gt;&lt;/div&gt;" style="text;html=1;align=center;verticalAlign=middle;resizable=0;points=[];autosize=1;strokeColor=none;fillColor=#FFFFFF;" parent="1" vertex="1">
          <mxGeometry x="325" y="512.5" width="30" height="20" as="geometry" />
        </mxCell>
        <mxCell id="LunK326cNXRjHZ1-TdNW-104" value="&lt;div style=&quot;text-align: left&quot;&gt;&lt;font size=&quot;1&quot;&gt;&lt;span style=&quot;background-color: rgb(255 , 255 , 255)&quot;&gt;Да&lt;/span&gt;&lt;/font&gt;&lt;/div&gt;" style="text;html=1;align=center;verticalAlign=middle;resizable=0;points=[];autosize=1;strokeColor=none;fillColor=#FFFFFF;" parent="1" vertex="1">
          <mxGeometry x="550" y="517.5" width="30" height="20" as="geometry" />
        </mxCell>
        <mxCell id="LunK326cNXRjHZ1-TdNW-105" value="&lt;div style=&quot;text-align: left&quot;&gt;&lt;font size=&quot;1&quot;&gt;&lt;span style=&quot;background-color: rgb(255 , 255 , 255)&quot;&gt;Нет&lt;/span&gt;&lt;/font&gt;&lt;/div&gt;" style="text;html=1;align=center;verticalAlign=middle;resizable=0;points=[];autosize=1;strokeColor=none;fillColor=#FFFFFF;" parent="1" vertex="1">
          <mxGeometry x="780" y="323.75" width="30" height="20" as="geometry" />
        </mxCell>
        <mxCell id="LunK326cNXRjHZ1-TdNW-106" value="&lt;div style=&quot;text-align: left&quot;&gt;&lt;font size=&quot;1&quot;&gt;&lt;span style=&quot;background-color: rgb(255 , 255 , 255)&quot;&gt;Нет&lt;/span&gt;&lt;/font&gt;&lt;/div&gt;" style="text;html=1;align=center;verticalAlign=middle;resizable=0;points=[];autosize=1;strokeColor=none;fillColor=#FFFFFF;" parent="1" vertex="1">
          <mxGeometry x="780" y="418.75" width="30" height="20" as="geometry" />
        </mxCell>
        <mxCell id="LunK326cNXRjHZ1-TdNW-107" value="&lt;div style=&quot;text-align: left&quot;&gt;&lt;font size=&quot;1&quot;&gt;&lt;span style=&quot;background-color: rgb(255 , 255 , 255)&quot;&gt;Нет&lt;/span&gt;&lt;/font&gt;&lt;/div&gt;" style="text;html=1;align=center;verticalAlign=middle;resizable=0;points=[];autosize=1;strokeColor=none;fillColor=#FFFFFF;" parent="1" vertex="1">
          <mxGeometry x="780" y="516.25" width="30" height="20" as="geometry" />
        </mxCell>
        <mxCell id="LunK326cNXRjHZ1-TdNW-108" value="&lt;span style=&quot;font-size: 13px; text-align: left; background-color: rgb(255, 255, 255);&quot;&gt;4. Назначение шаблона&lt;/span&gt;" style="text;html=1;align=center;verticalAlign=middle;resizable=0;points=[];autosize=1;strokeColor=none;fillColor=#FFFFFF;fontSize=13;" parent="1" vertex="1">
          <mxGeometry x="920" y="192" width="160" height="20" as="geometry" />
        </mxCell>
        <mxCell id="4_tVNXlnhGLHTmKgm-SY-1" value="&lt;div style=&quot;text-align: left&quot;&gt;&lt;font size=&quot;1&quot;&gt;&lt;span style=&quot;background-color: rgb(255 , 255 , 255)&quot;&gt;Да&lt;/span&gt;&lt;/font&gt;&lt;/div&gt;" style="text;html=1;align=center;verticalAlign=middle;resizable=0;points=[];autosize=1;strokeColor=none;fillColor=#FFFFFF;" vertex="1" parent="1">
          <mxGeometry x="325" y="235" width="30" height="20" as="geometry" />
        </mxCell>
        <mxCell id="4_tVNXlnhGLHTmKgm-SY-2" value="&lt;div style=&quot;text-align: left&quot;&gt;&lt;font size=&quot;1&quot;&gt;&lt;span style=&quot;background-color: rgb(255 , 255 , 255)&quot;&gt;Да&lt;/span&gt;&lt;/font&gt;&lt;/div&gt;" style="text;html=1;align=center;verticalAlign=middle;resizable=0;points=[];autosize=1;strokeColor=none;fillColor=#FFFFFF;" vertex="1" parent="1">
          <mxGeometry x="550" y="229" width="30" height="20" as="geometry" />
        </mxCell>
        <mxCell id="4_tVNXlnhGLHTmKgm-SY-3" value="&lt;div style=&quot;text-align: left&quot;&gt;&lt;font size=&quot;1&quot;&gt;&lt;span style=&quot;background-color: rgb(255 , 255 , 255)&quot;&gt;Нет&lt;/span&gt;&lt;/font&gt;&lt;/div&gt;" style="text;html=1;align=center;verticalAlign=middle;resizable=0;points=[];autosize=1;strokeColor=none;fillColor=#FFFFFF;" vertex="1" parent="1">
          <mxGeometry x="780" y="235" width="30" height="20" as="geometry" />
        </mxCell>
        <mxCell id="4_tVNXlnhGLHTmKgm-SY-4" value="&lt;div style=&quot;text-align: left&quot;&gt;&lt;font size=&quot;1&quot;&gt;&lt;span style=&quot;background-color: rgb(255 , 255 , 255)&quot;&gt;Нет&lt;/span&gt;&lt;/font&gt;&lt;/div&gt;" style="text;html=1;align=center;verticalAlign=middle;resizable=0;points=[];autosize=1;strokeColor=none;fillColor=#FFFFFF;" vertex="1" parent="1">
          <mxGeometry x="985" y="235" width="30" height="20" as="geometry" />
        </mxCell>
        <mxCell id="4_tVNXlnhGLHTmKgm-SY-5" value="&lt;div style=&quot;text-align: left&quot;&gt;&lt;font size=&quot;1&quot;&gt;&lt;span style=&quot;background-color: rgb(255 , 255 , 255)&quot;&gt;Да&lt;/span&gt;&lt;/font&gt;&lt;/div&gt;" style="text;html=1;align=center;verticalAlign=middle;resizable=0;points=[];autosize=1;strokeColor=none;fillColor=#FFFFFF;" vertex="1" parent="1">
          <mxGeometry x="985" y="323.75" width="30" height="20" as="geometry" />
        </mxCell>
        <mxCell id="4_tVNXlnhGLHTmKgm-SY-6" value="&lt;div style=&quot;text-align: left&quot;&gt;&lt;font size=&quot;1&quot;&gt;&lt;span style=&quot;background-color: rgb(255 , 255 , 255)&quot;&gt;Да&lt;/span&gt;&lt;/font&gt;&lt;/div&gt;" style="text;html=1;align=center;verticalAlign=middle;resizable=0;points=[];autosize=1;strokeColor=none;fillColor=#FFFFFF;" vertex="1" parent="1">
          <mxGeometry x="985" y="415" width="30" height="20" as="geometry" />
        </mxCell>
        <mxCell id="4_tVNXlnhGLHTmKgm-SY-7" value="&lt;div style=&quot;text-align: left&quot;&gt;&lt;font size=&quot;1&quot;&gt;&lt;span style=&quot;background-color: rgb(255 , 255 , 255)&quot;&gt;Нет&lt;/span&gt;&lt;/font&gt;&lt;/div&gt;" style="text;html=1;align=center;verticalAlign=middle;resizable=0;points=[];autosize=1;strokeColor=none;fillColor=#FFFFFF;" vertex="1" parent="1">
          <mxGeometry x="985" y="512.5" width="30" height="20" as="geometry" />
        </mxCell>
        <mxCell id="4_tVNXlnhGLHTmKgm-SY-8" value="" style="line;strokeWidth=1;rotatable=0;dashed=1;labelPosition=right;align=left;verticalAlign=middle;spacingTop=0;spacingLeft=6;points=[];portConstraint=eastwest;fillColor=#E6E6E6;strokeColor=#00CC00;" vertex="1" parent="1">
          <mxGeometry x="340" y="420" width="650" height="10" as="geometry" />
        </mxCell>
        <mxCell id="4_tVNXlnhGLHTmKgm-SY-9" value="" style="ellipse;whiteSpace=wrap;html=1;aspect=fixed;strokeColor=#00FF00;fillColor=#00FF00;" vertex="1" parent="1">
          <mxGeometry x="568.75" y="410" width="11.25" height="11.25" as="geometry" />
        </mxCell>
        <mxCell id="4_tVNXlnhGLHTmKgm-SY-12" value="" style="ellipse;whiteSpace=wrap;html=1;aspect=fixed;strokeColor=#00FF00;fillColor=#00FF00;" vertex="1" parent="1">
          <mxGeometry x="343.75" y="410" width="11.25" height="11.25" as="geometry" />
        </mxCell>
        <mxCell id="4_tVNXlnhGLHTmKgm-SY-14" value="" style="line;strokeWidth=1;rotatable=0;dashed=1;labelPosition=right;align=left;verticalAlign=middle;spacingTop=0;spacingLeft=6;points=[];portConstraint=eastwest;fillColor=#E6E6E6;strokeColor=#00CC00;" vertex="1" parent="1">
          <mxGeometry x="580" y="323" width="410" height="10" as="geometry" />
        </mxCell>
        <mxCell id="4_tVNXlnhGLHTmKgm-SY-15" value="" style="ellipse;whiteSpace=wrap;html=1;aspect=fixed;strokeColor=#00FF00;fillColor=#00FF00;" vertex="1" parent="1">
          <mxGeometry x="570" y="320" width="11.25" height="11.25" as="geometry" />
        </mxCell>
        <mxCell id="4_tVNXlnhGLHTmKgm-SY-16" value="" style="rounded=0;whiteSpace=wrap;html=1;fontSize=13;strokeColor=#808080;fillColor=none;" vertex="1" parent="1">
          <mxGeometry x="30" y="89" width="1090" height="481" as="geometry" />
        </mxCell>
        <mxCell id="4_tVNXlnhGLHTmKgm-SY-17" value="Создание отчета" style="shape=hexagon;perimeter=hexagonPerimeter2;whiteSpace=wrap;html=1;fixedSize=1;fontSize=13;strokeColor=#b85450;fillColor=#f8cecc;" vertex="1" parent="1">
          <mxGeometry x="775" y="641" width="120" height="80" as="geometry" />
        </mxCell>
        <mxCell id="4_tVNXlnhGLHTmKgm-SY-26" style="edgeStyle=orthogonalEdgeStyle;rounded=0;orthogonalLoop=1;jettySize=auto;html=1;fontSize=13;" edge="1" parent="1" source="4_tVNXlnhGLHTmKgm-SY-18" target="4_tVNXlnhGLHTmKgm-SY-25">
          <mxGeometry relative="1" as="geometry" />
        </mxCell>
        <mxCell id="4_tVNXlnhGLHTmKgm-SY-28" value="" style="edgeStyle=orthogonalEdgeStyle;rounded=0;orthogonalLoop=1;jettySize=auto;html=1;fontSize=13;" edge="1" parent="1" source="4_tVNXlnhGLHTmKgm-SY-18" target="4_tVNXlnhGLHTmKgm-SY-27">
          <mxGeometry relative="1" as="geometry" />
        </mxCell>
        <mxCell id="4_tVNXlnhGLHTmKgm-SY-18" value="Открыть" style="rounded=1;whiteSpace=wrap;html=1;fontSize=13;strokeColor=#82b366;fillColor=#d5e8d4;" vertex="1" parent="1">
          <mxGeometry x="769" y="768" width="120" height="70" as="geometry" />
        </mxCell>
        <mxCell id="4_tVNXlnhGLHTmKgm-SY-22" value="" style="edgeStyle=orthogonalEdgeStyle;rounded=0;orthogonalLoop=1;jettySize=auto;html=1;fontSize=13;" edge="1" parent="1" source="4_tVNXlnhGLHTmKgm-SY-19" target="4_tVNXlnhGLHTmKgm-SY-18">
          <mxGeometry relative="1" as="geometry" />
        </mxCell>
        <mxCell id="4_tVNXlnhGLHTmKgm-SY-19" value="Администратор" style="ellipse;whiteSpace=wrap;html=1;fontSize=13;strokeColor=#d6b656;fillColor=#fff2cc;" vertex="1" parent="1">
          <mxGeometry x="585" y="721" width="120" height="80" as="geometry" />
        </mxCell>
        <mxCell id="4_tVNXlnhGLHTmKgm-SY-20" value="" style="endArrow=classic;html=1;fontSize=13;exitX=0.455;exitY=1.023;exitDx=0;exitDy=0;exitPerimeter=0;" edge="1" parent="1" source="4_tVNXlnhGLHTmKgm-SY-17" target="4_tVNXlnhGLHTmKgm-SY-18">
          <mxGeometry width="50" height="50" relative="1" as="geometry">
            <mxPoint x="983" y="817" as="sourcePoint" />
            <mxPoint x="1033" y="767" as="targetPoint" />
          </mxGeometry>
        </mxCell>
        <mxCell id="4_tVNXlnhGLHTmKgm-SY-24" value="" style="edgeStyle=orthogonalEdgeStyle;rounded=0;orthogonalLoop=1;jettySize=auto;html=1;fontSize=13;" edge="1" parent="1" source="4_tVNXlnhGLHTmKgm-SY-23" target="4_tVNXlnhGLHTmKgm-SY-18">
          <mxGeometry relative="1" as="geometry" />
        </mxCell>
        <mxCell id="4_tVNXlnhGLHTmKgm-SY-23" value="Система" style="rounded=0;whiteSpace=wrap;html=1;fontSize=13;strokeColor=#6c8ebf;fillColor=#dae8fc;" vertex="1" parent="1">
          <mxGeometry x="585" y="820" width="120" height="60" as="geometry" />
        </mxCell>
        <mxCell id="4_tVNXlnhGLHTmKgm-SY-25" value="Реестр отчетов" style="rounded=0;whiteSpace=wrap;html=1;fontSize=13;strokeColor=#6c8ebf;fillColor=#dae8fc;" vertex="1" parent="1">
          <mxGeometry x="940" y="768" width="120" height="70" as="geometry" />
        </mxCell>
        <mxCell id="4_tVNXlnhGLHTmKgm-SY-30" value="" style="edgeStyle=orthogonalEdgeStyle;rounded=0;orthogonalLoop=1;jettySize=auto;html=1;fontSize=13;" edge="1" parent="1" source="4_tVNXlnhGLHTmKgm-SY-27" target="4_tVNXlnhGLHTmKgm-SY-29">
          <mxGeometry relative="1" as="geometry" />
        </mxCell>
        <mxCell id="4_tVNXlnhGLHTmKgm-SY-27" value="Реестр отчетов открыт" style="shape=hexagon;perimeter=hexagonPerimeter2;whiteSpace=wrap;html=1;fixedSize=1;fontSize=13;strokeColor=#b85450;fillColor=#f8cecc;" vertex="1" parent="1">
          <mxGeometry x="769" y="890" width="120" height="80" as="geometry" />
        </mxCell>
        <mxCell id="4_tVNXlnhGLHTmKgm-SY-32" value="" style="edgeStyle=orthogonalEdgeStyle;rounded=0;orthogonalLoop=1;jettySize=auto;html=1;fontSize=13;" edge="1" parent="1" source="4_tVNXlnhGLHTmKgm-SY-29" target="4_tVNXlnhGLHTmKgm-SY-31">
          <mxGeometry relative="1" as="geometry" />
        </mxCell>
        <mxCell id="4_tVNXlnhGLHTmKgm-SY-34" value="" style="edgeStyle=orthogonalEdgeStyle;rounded=0;orthogonalLoop=1;jettySize=auto;html=1;fontSize=13;" edge="1" parent="1" source="4_tVNXlnhGLHTmKgm-SY-29" target="4_tVNXlnhGLHTmKgm-SY-33">
          <mxGeometry relative="1" as="geometry" />
        </mxCell>
        <mxCell id="4_tVNXlnhGLHTmKgm-SY-29" value="Создать" style="rounded=1;whiteSpace=wrap;html=1;fontSize=13;strokeColor=#82b366;fillColor=#d5e8d4;" vertex="1" parent="1">
          <mxGeometry x="769" y="1020" width="120" height="70" as="geometry" />
        </mxCell>
        <mxCell id="4_tVNXlnhGLHTmKgm-SY-31" value="Шаблон отчета" style="rounded=0;whiteSpace=wrap;html=1;fontSize=13;strokeColor=#6c8ebf;fillColor=#dae8fc;" vertex="1" parent="1">
          <mxGeometry x="940" y="1020" width="120" height="70" as="geometry" />
        </mxCell>
        <mxCell id="4_tVNXlnhGLHTmKgm-SY-36" value="" style="edgeStyle=orthogonalEdgeStyle;rounded=0;orthogonalLoop=1;jettySize=auto;html=1;fontSize=13;" edge="1" parent="1" source="4_tVNXlnhGLHTmKgm-SY-33" target="4_tVNXlnhGLHTmKgm-SY-35">
          <mxGeometry relative="1" as="geometry" />
        </mxCell>
        <mxCell id="4_tVNXlnhGLHTmKgm-SY-33" value="Шаблон отчета открыт" style="shape=hexagon;perimeter=hexagonPerimeter2;whiteSpace=wrap;html=1;fixedSize=1;fontSize=13;strokeColor=#b85450;fillColor=#f8cecc;" vertex="1" parent="1">
          <mxGeometry x="769" y="1140" width="120" height="80" as="geometry" />
        </mxCell>
        <mxCell id="4_tVNXlnhGLHTmKgm-SY-38" value="" style="edgeStyle=orthogonalEdgeStyle;rounded=0;orthogonalLoop=1;jettySize=auto;html=1;fontSize=13;" edge="1" parent="1" source="4_tVNXlnhGLHTmKgm-SY-35" target="4_tVNXlnhGLHTmKgm-SY-37">
          <mxGeometry relative="1" as="geometry" />
        </mxCell>
        <mxCell id="4_tVNXlnhGLHTmKgm-SY-44" value="" style="edgeStyle=orthogonalEdgeStyle;rounded=0;orthogonalLoop=1;jettySize=auto;html=1;fontSize=13;exitX=0;exitY=0.5;exitDx=0;exitDy=0;exitPerimeter=0;entryX=1;entryY=0.5;entryDx=0;entryDy=0;" edge="1" parent="1" source="4_tVNXlnhGLHTmKgm-SY-45" target="4_tVNXlnhGLHTmKgm-SY-47">
          <mxGeometry relative="1" as="geometry">
            <mxPoint x="930" y="1550" as="sourcePoint" />
            <mxPoint x="780" y="1590" as="targetPoint" />
          </mxGeometry>
        </mxCell>
        <mxCell id="4_tVNXlnhGLHTmKgm-SY-46" value="" style="edgeStyle=orthogonalEdgeStyle;rounded=0;orthogonalLoop=1;jettySize=auto;html=1;fontSize=13;" edge="1" parent="1" source="4_tVNXlnhGLHTmKgm-SY-35">
          <mxGeometry relative="1" as="geometry">
            <mxPoint x="829" y="1370" as="targetPoint" />
          </mxGeometry>
        </mxCell>
        <mxCell id="4_tVNXlnhGLHTmKgm-SY-35" value="Заполнение полей" style="rounded=1;whiteSpace=wrap;html=1;fontSize=13;strokeColor=#82b366;fillColor=#d5e8d4;" vertex="1" parent="1">
          <mxGeometry x="769" y="1260" width="120" height="70" as="geometry" />
        </mxCell>
        <mxCell id="4_tVNXlnhGLHTmKgm-SY-40" value="" style="edgeStyle=orthogonalEdgeStyle;rounded=0;orthogonalLoop=1;jettySize=auto;html=1;fontSize=13;" edge="1" parent="1" source="4_tVNXlnhGLHTmKgm-SY-37" target="4_tVNXlnhGLHTmKgm-SY-39">
          <mxGeometry relative="1" as="geometry" />
        </mxCell>
        <mxCell id="4_tVNXlnhGLHTmKgm-SY-37" value="Показатели отчета" style="rounded=0;whiteSpace=wrap;html=1;fontSize=13;strokeColor=#6c8ebf;fillColor=#dae8fc;" vertex="1" parent="1">
          <mxGeometry x="940" y="1260" width="120" height="70" as="geometry" />
        </mxCell>
        <mxCell id="4_tVNXlnhGLHTmKgm-SY-42" value="" style="edgeStyle=orthogonalEdgeStyle;rounded=0;orthogonalLoop=1;jettySize=auto;html=1;fontSize=13;" edge="1" parent="1" source="4_tVNXlnhGLHTmKgm-SY-39" target="4_tVNXlnhGLHTmKgm-SY-41">
          <mxGeometry relative="1" as="geometry" />
        </mxCell>
        <mxCell id="4_tVNXlnhGLHTmKgm-SY-39" value="Цветовой диапазон окрашивания" style="rounded=0;whiteSpace=wrap;html=1;fontSize=13;strokeColor=#6c8ebf;fillColor=#dae8fc;" vertex="1" parent="1">
          <mxGeometry x="1100" y="1260" width="120" height="70" as="geometry" />
        </mxCell>
        <mxCell id="4_tVNXlnhGLHTmKgm-SY-41" value="Итоговые функции" style="rounded=0;whiteSpace=wrap;html=1;fontSize=13;strokeColor=#6c8ebf;fillColor=#dae8fc;" vertex="1" parent="1">
          <mxGeometry x="1260" y="1260" width="120" height="70" as="geometry" />
        </mxCell>
        <mxCell id="4_tVNXlnhGLHTmKgm-SY-50" value="" style="edgeStyle=orthogonalEdgeStyle;rounded=0;orthogonalLoop=1;jettySize=auto;html=1;fontSize=13;" edge="1" parent="1" source="4_tVNXlnhGLHTmKgm-SY-43" target="4_tVNXlnhGLHTmKgm-SY-49">
          <mxGeometry relative="1" as="geometry" />
        </mxCell>
        <mxCell id="4_tVNXlnhGLHTmKgm-SY-43" value="Валидация пройдена" style="shape=hexagon;perimeter=hexagonPerimeter2;whiteSpace=wrap;html=1;fixedSize=1;fontSize=13;strokeColor=#b85450;fillColor=#f8cecc;" vertex="1" parent="1">
          <mxGeometry x="769" y="1740" width="120" height="80" as="geometry" />
        </mxCell>
        <mxCell id="4_tVNXlnhGLHTmKgm-SY-48" style="edgeStyle=orthogonalEdgeStyle;rounded=0;orthogonalLoop=1;jettySize=auto;html=1;fontSize=13;" edge="1" parent="1" source="4_tVNXlnhGLHTmKgm-SY-45" target="4_tVNXlnhGLHTmKgm-SY-43">
          <mxGeometry relative="1" as="geometry">
            <mxPoint x="1025" y="1590" as="targetPoint" />
          </mxGeometry>
        </mxCell>
        <mxCell id="4_tVNXlnhGLHTmKgm-SY-45" value="" style="verticalLabelPosition=bottom;verticalAlign=top;html=1;shape=mxgraph.flowchart.or;fontSize=13;strokeColor=#808080;fillColor=none;" vertex="1" parent="1">
          <mxGeometry x="809" y="1630" width="40" height="40" as="geometry" />
        </mxCell>
        <mxCell id="4_tVNXlnhGLHTmKgm-SY-53" style="edgeStyle=orthogonalEdgeStyle;rounded=0;orthogonalLoop=1;jettySize=auto;html=1;entryX=0;entryY=0.5;entryDx=0;entryDy=0;fontSize=13;exitX=0;exitY=0.5;exitDx=0;exitDy=0;" edge="1" parent="1" source="4_tVNXlnhGLHTmKgm-SY-47" target="4_tVNXlnhGLHTmKgm-SY-29">
          <mxGeometry relative="1" as="geometry">
            <Array as="points">
              <mxPoint x="520" y="1650" />
              <mxPoint x="520" y="1055" />
            </Array>
          </mxGeometry>
        </mxCell>
        <mxCell id="4_tVNXlnhGLHTmKgm-SY-47" value="Валидация не пройдена" style="shape=hexagon;perimeter=hexagonPerimeter2;whiteSpace=wrap;html=1;fixedSize=1;fontSize=13;strokeColor=#b85450;fillColor=#f8cecc;" vertex="1" parent="1">
          <mxGeometry x="605" y="1610" width="120" height="80" as="geometry" />
        </mxCell>
        <mxCell id="4_tVNXlnhGLHTmKgm-SY-52" value="" style="edgeStyle=orthogonalEdgeStyle;rounded=0;orthogonalLoop=1;jettySize=auto;html=1;fontSize=13;" edge="1" parent="1" source="4_tVNXlnhGLHTmKgm-SY-49" target="4_tVNXlnhGLHTmKgm-SY-51">
          <mxGeometry relative="1" as="geometry" />
        </mxCell>
        <mxCell id="4_tVNXlnhGLHTmKgm-SY-61" value="" style="edgeStyle=orthogonalEdgeStyle;rounded=0;orthogonalLoop=1;jettySize=auto;html=1;fontSize=13;" edge="1" parent="1" source="4_tVNXlnhGLHTmKgm-SY-49" target="4_tVNXlnhGLHTmKgm-SY-60">
          <mxGeometry relative="1" as="geometry" />
        </mxCell>
        <mxCell id="4_tVNXlnhGLHTmKgm-SY-49" value="Создание" style="rounded=1;whiteSpace=wrap;html=1;fontSize=13;strokeColor=#82b366;fillColor=#d5e8d4;" vertex="1" parent="1">
          <mxGeometry x="769" y="1860" width="120" height="70" as="geometry" />
        </mxCell>
        <mxCell id="4_tVNXlnhGLHTmKgm-SY-51" value="Шаблон отчета" style="rounded=0;whiteSpace=wrap;html=1;fontSize=13;strokeColor=#6c8ebf;fillColor=#dae8fc;" vertex="1" parent="1">
          <mxGeometry x="924" y="1860" width="120" height="70" as="geometry" />
        </mxCell>
        <mxCell id="4_tVNXlnhGLHTmKgm-SY-56" value="" style="edgeStyle=orthogonalEdgeStyle;rounded=0;orthogonalLoop=1;jettySize=auto;html=1;fontSize=13;" edge="1" parent="1" source="4_tVNXlnhGLHTmKgm-SY-54" target="4_tVNXlnhGLHTmKgm-SY-55">
          <mxGeometry relative="1" as="geometry" />
        </mxCell>
        <mxCell id="4_tVNXlnhGLHTmKgm-SY-54" value="Поля заполнены" style="shape=hexagon;perimeter=hexagonPerimeter2;whiteSpace=wrap;html=1;fixedSize=1;fontSize=13;strokeColor=#b85450;fillColor=#f8cecc;" vertex="1" parent="1">
          <mxGeometry x="769" y="1370" width="120" height="80" as="geometry" />
        </mxCell>
        <mxCell id="4_tVNXlnhGLHTmKgm-SY-59" value="" style="edgeStyle=orthogonalEdgeStyle;rounded=0;orthogonalLoop=1;jettySize=auto;html=1;fontSize=13;" edge="1" parent="1" source="4_tVNXlnhGLHTmKgm-SY-55" target="4_tVNXlnhGLHTmKgm-SY-45">
          <mxGeometry relative="1" as="geometry" />
        </mxCell>
        <mxCell id="4_tVNXlnhGLHTmKgm-SY-55" value="Сохранение" style="rounded=1;whiteSpace=wrap;html=1;fontSize=13;strokeColor=#82b366;fillColor=#d5e8d4;" vertex="1" parent="1">
          <mxGeometry x="769" y="1500" width="120" height="70" as="geometry" />
        </mxCell>
        <mxCell id="4_tVNXlnhGLHTmKgm-SY-58" value="" style="edgeStyle=orthogonalEdgeStyle;rounded=0;orthogonalLoop=1;jettySize=auto;html=1;fontSize=13;" edge="1" parent="1" source="4_tVNXlnhGLHTmKgm-SY-57" target="4_tVNXlnhGLHTmKgm-SY-55">
          <mxGeometry relative="1" as="geometry" />
        </mxCell>
        <mxCell id="4_tVNXlnhGLHTmKgm-SY-57" value="Администратор" style="ellipse;whiteSpace=wrap;html=1;fontSize=13;strokeColor=#d6b656;fillColor=#fff2cc;" vertex="1" parent="1">
          <mxGeometry x="600" y="1495" width="120" height="80" as="geometry" />
        </mxCell>
        <mxCell id="4_tVNXlnhGLHTmKgm-SY-60" value="Отчет создан" style="shape=hexagon;perimeter=hexagonPerimeter2;whiteSpace=wrap;html=1;fixedSize=1;fontSize=13;strokeColor=#b85450;fillColor=#f8cecc;" vertex="1" parent="1">
          <mxGeometry x="769" y="1970" width="120" height="80" as="geometry" />
        </mxCell>
        <mxCell id="4_tVNXlnhGLHTmKgm-SY-64" value="Нажать кнопку &quot;Отмена&quot;" style="whiteSpace=wrap;html=1;shape=partialRectangle;top=0;left=0;bottom=1;right=0;points=[[0,1],[1,1]];fillColor=none;align=center;verticalAlign=bottom;routingCenterY=0.5;snapToPoint=1;recursiveResize=0;autosize=1;treeFolding=1;treeMoving=1;newEdgeStyle={&quot;edgeStyle&quot;:&quot;entityRelationEdgeStyle&quot;,&quot;startArrow&quot;:&quot;none&quot;,&quot;endArrow&quot;:&quot;none&quot;,&quot;segment&quot;:10,&quot;curved&quot;:1};fontSize=13;strokeColor=#808080;" vertex="1" parent="1">
          <mxGeometry x="408.21" y="1690" width="180" height="32.86" as="geometry" />
        </mxCell>
        <mxCell id="4_tVNXlnhGLHTmKgm-SY-65" value="" style="edgeStyle=entityRelationEdgeStyle;startArrow=none;endArrow=none;segment=10;curved=1;fontSize=13;" edge="1" target="4_tVNXlnhGLHTmKgm-SY-64" parent="1" source="4_tVNXlnhGLHTmKgm-SY-47">
          <mxGeometry relative="1" as="geometry">
            <mxPoint x="671.7814285714287" y="1520.002857142857" as="sourcePoint" />
          </mxGeometry>
        </mxCell>
      </root>
    </mxGraphModel>
  </diagram>
</mxfile>
